<svg width="100" height="100" viewBox="0 0 100 100" fill="none" xmlns="http://www.w3.org/2000/svg">
<g clip-path="url(#clip0_101_6)">
<rect width="100" height="100" fill="white"/>
<rect width="20" height="20" fill="#F8D7C9"/>
<rect y="20" width="20" height="20" fill="#F8D7C9"/>
<rect x="20" width="20" height="20" fill="#F8D7C9"/>
<rect x="20" y="20" width="20" height="20" fill="#F2AC92"/>
<rect x="40" y="20" width="20" height="20" fill="#F2AC92"/>
<rect x="40" width="20" height="20" fill="#F2AC92"/>
<rect y="40" width="20" height="20" fill="#F2AC92"/>
<rect x="40" y="40" width="20" height="20" fill="#F2AC92"/>
<rect x="20" y="40" width="20" height="20" fill="#F2AC92"/>
<rect y="60" width="20" height="20" fill="#F2AC92"/>
<rect x="20" y="60" width="20" height="20" fill="#F2AC92"/>
<rect x="40" y="60" width="20" height="20" fill="#F2AC92"/>
<rect x="60" width="20" height="20" fill="#F2AC92"/>
<rect x="60" y="20" width="20" height="20" fill="#F2AC92"/>
<rect x="60" y="40" width="20" height="20" fill="#F2AC92"/>
<rect x="80" width="20" height="20" fill="#A45949"/>
<rect x="80" y="20" width="20" height="20" fill="#A45949"/>
<rect x="80" y="40" width="20" height="20" fill="#A45949"/>
<rect x="80" y="60" width="20" height="20" fill="#A45949"/>
<rect x="80" y="80" width="20" height="20" fill="#A45949"/>
<rect x="60" y="80" width="20" height="20" fill="#A45949"/>
<rect x="40" y="80" width="20" height="20" fill="#A45949"/>
<rect x="20" y="80" width="20" height="20" fill="#A45949"/>
<rect y="80" width="20" height="20" fill="#A45949"/>
<rect x="60" y="60" width="20" height="20" fill="#F2AC92"/>
</g>
<defs>
<clipPath id="clip0_101_6">
<rect width="100" height="100" fill="white"/>
</clipPath>
</defs>
</svg>
