<?xml version="1.0" encoding="utf-8"?>
<!-- Generator: Adobe Illustrator 23.0.4, SVG Export Plug-In . SVG Version: 6.00 Build 0)  -->
<svg version="1.1" id="Laag_2" xmlns="http://www.w3.org/2000/svg" xmlns:xlink="http://www.w3.org/1999/xlink" x="0px" y="0px"
	 viewBox="0 0 814.1 740.5" style="enable-background:new 0 0 814.1 740.5;" xml:space="preserve">
<style type="text/css">
	.st0{display:none;stroke:#FFFFFF;stroke-miterlimit:10;}
	.st1{fill:#FFFFFF;}
</style>
<rect x="-254.9" class="st0" width="1710.2" height="740.5"/>
<g>
	<path class="st1" d="M257.8,269.1c-11.4,10.7-24.5,19.2-39.4,25.7c-16.2,7.1-33.6,10.6-52.2,10.6c-18.4,0-35.6-3.5-51.9-10.6
		S83.9,278.1,71.8,266c-12.1-12.1-21.7-26.3-28.8-42.5c-7.1-16.2-10.6-33.6-10.6-52.2c0-18.4,3.5-35.7,10.6-52.1
		c7.1-16.4,16.6-30.6,28.8-42.7c12.1-12.1,26.3-21.7,42.5-28.8s33.5-10.6,51.9-10.6c18.6,0,36,3.5,52.2,10.6
		c14.9,6.5,28.1,15.1,39.6,25.9l-31.3,36.9c-0.2-0.2-0.5-0.5-0.7-0.7c-7.6-8-16.6-14.4-26.8-19.2c-10.2-4.8-21.2-7.2-32.9-7.2
		c-11.7,0-22.7,2.4-32.9,7.2c-10.2,4.8-19.1,11.2-26.8,19.2c-7.6,8-13.7,17.4-18.1,28.1c-4.5,10.7-6.7,21.8-6.7,33.4
		c0,11.8,2.2,22.9,6.7,33.5s10.5,19.9,18.1,28.1c7.6,8.1,16.6,14.6,26.8,19.4c10.2,4.8,21.2,7.2,32.9,7.2c11.7,0,22.7-2.4,32.9-7.2
		c10.2-4.8,19.1-11.3,26.8-19.4c0.2-0.2,0.4-0.5,0.7-0.7L257.8,269.1z"/>
	<path class="st1" d="M148.4,611.6H46.6V353.3h101.8c36.9,0,67.2,10.8,90.9,32.5c12.7,11.5,22.3,25.5,28.7,41.8
		c6.5,16.4,9.7,34.6,9.7,54.9c0,20.5-3.2,38.9-9.7,55.2c-6.5,16.4-16,30.3-28.7,41.8c-11.5,10.6-25,18.6-40.4,24
		C183.6,608.9,166.7,611.6,148.4,611.6z M96,567.8h52.6c9.2,0,18.5-1.1,27.9-3.2c9.4-2.1,17.9-6.3,25.6-12.5
		c7.6-6.2,13.9-14.9,18.9-25.9c4.9-11.1,7.4-25.5,7.4-43.4c0-17.9-2.5-32.4-7.4-43.6c-4.9-11.2-11.3-19.8-19.1-25.9
		c-7.8-6.1-16.4-10.2-25.8-12.4c-9.4-2.1-18.6-3.2-27.5-3.2H96V567.8z"/>
	<path class="st1" d="M417.8,305.3c-18.4,0-35.6-3.5-51.9-10.6s-30.4-16.6-42.5-28.8c-12.1-12.1-21.7-26.3-28.8-42.5
		c-7.1-16.2-10.6-33.6-10.6-52.2c0-18.4,3.5-35.7,10.6-52.1c7.1-16.4,16.6-30.6,28.8-42.7c12.1-12.1,26.3-21.7,42.5-28.8
		s33.5-10.6,51.9-10.6c18.6,0,36,3.5,52.2,10.6s30.4,16.6,42.5,28.8c12.1,12.1,21.7,26.4,28.8,42.7c7.1,16.4,10.6,33.7,10.6,52.1
		c0,18.6-3.5,36-10.6,52.2c-7.1,16.2-16.6,30.4-28.8,42.5c-12.1,12.1-26.3,21.7-42.5,28.8C453.8,301.8,436.4,305.3,417.8,305.3z
		 M418,83.3c-11.7,0-22.7,2.4-32.9,7.2c-10.2,4.8-19.1,11.2-26.8,19.2c-7.6,8-13.7,17.4-18.1,28.1c-4.5,10.7-6.7,21.8-6.7,33.4
		c0,11.8,2.2,22.9,6.7,33.5c4.5,10.6,10.5,19.9,18.1,28.1c7.6,8.1,16.6,14.6,26.8,19.4c10.2,4.8,21.2,7.2,32.9,7.2
		c11.7,0,22.7-2.4,32.9-7.2c10.2-4.8,19.1-11.3,26.8-19.4c7.6-8.1,13.7-17.5,18.1-28.1s6.7-21.8,6.7-33.5c0-11.5-2.2-22.6-6.7-33.4
		c-4.5-10.7-10.5-20.1-18.1-28.1c-7.6-8-16.6-14.4-26.8-19.2C440.7,85.8,429.7,83.3,418,83.3z"/>
	<polygon class="st1" points="760.3,349.9 630.1,502.5 500.2,349.9 500.2,425.2 630.1,578.1 710.9,481 710.9,611.6 760.3,611.6 	"/>
	<polygon class="st1" points="548.9,611.6 326.7,349.9 326.7,424.7 448.2,568.5 326.7,568.5 326.7,611.6 	"/>
</g>
<g>
	<path class="st1" d="M340.1,679.4h-7.4l-1.8,3.7h-4.8l10.3-19.5h4.1l5.2,19.5h-4.6L340.1,679.4z M339.3,675.9l-1.6-6.9l-3.3,6.9
		H339.3z"/>
	<path class="st1" d="M347,683.1l5.5-19.5h3.7l3.3,11.7l6.3-11.7h3.8l0.7,19.5h-4.5l-0.1-11.6l-6.2,11.6h-1.7l-3.4-11.6l-3,11.6H347
		z"/>
	<path class="st1" d="M385.6,668.4c-1.2-1.1-2.4-1.4-3.3-1.4c-0.6,0-1.3,0.1-1.8,0.5c-0.4,0.3-0.7,0.9-0.7,1.4c0,0.6,0.3,1,0.7,1.3
		c0.4,0.4,0.9,0.6,1.9,1l1.1,0.5c0.9,0.4,1.8,0.9,2.6,1.9c0.7,0.9,1,1.8,1,3c0,2-0.8,3.9-2,5c-1.6,1.5-3.6,1.9-5.6,1.9
		c-1.4,0-2.6-0.2-3.9-0.9c-1-0.5-1.9-1.3-2.6-2.1l2.5-3.2c0.4,0.6,1.1,1.2,1.6,1.5c0.6,0.4,1.4,0.6,2.3,0.6c0.7,0,1.6-0.2,2.2-0.6
		c0.5-0.4,0.8-1.1,0.8-1.8c0-0.7-0.3-1.1-0.6-1.3c-0.1-0.1-0.5-0.5-1.5-0.9l-1.1-0.5c-0.3-0.1-1.8-0.8-2.7-1.7s-1.3-2.1-1.3-3.3
		c0-2,0.8-3.5,1.8-4.4c1.6-1.5,3.6-1.8,5.3-1.8c1.7,0,3.6,0.3,5.6,1.9L385.6,668.4z"/>
	<path class="st1" d="M398.5,667.4l-1.9,15.7h-4.5l1.9-15.7h-4.2l0.5-3.8h13l-0.5,3.8H398.5z"/>
	<path class="st1" d="M415.9,667.4h-6.4l-0.5,3.8h6.1l-0.5,3.8h-6.1l-0.5,4.3h6.5l-0.5,3.8h-10.9l2.4-19.5h10.7L415.9,667.4z"/>
	<path class="st1" d="M426.3,663.6c1.9,0,3.7,0.2,5.2,1.8c0.7,0.7,1.4,2,1.4,4c0,1.8-0.6,3.3-1.6,4.3c-0.8,0.8-2,1.4-3.1,1.6l5,7.9
		H428l-4.7-7.7l-0.9,7.7h-4.5l2.4-19.5H426.3z M423.6,672.4h1.1c0.7,0,1.8-0.1,2.6-0.7s1-1.5,1-2.3c0-0.6-0.1-1.4-0.9-1.9
		c-0.6-0.4-1.4-0.5-2.5-0.5h-0.7L423.6,672.4z"/>
	<path class="st1" d="M443.7,663.6c2,0,5.3,0.3,7.4,2.5c1.3,1.3,2.3,3.4,2.3,6.5c0,4.5-2,6.9-3,7.8c-2.2,2.1-5.3,2.7-8.8,2.7h-6
		l2.4-19.5H443.7z M440.5,679.3h1.4c1.3,0,3.4-0.1,5-1.5c1.1-1,2-2.8,2-5.1c0-1.7-0.6-3.1-1.4-3.9c-0.9-0.9-2.5-1.4-4.1-1.4H442
		L440.5,679.3z"/>
	<path class="st1" d="M467.6,679.4h-7.4l-1.8,3.7h-4.8l10.3-19.5h4.1l5.2,19.5h-4.6L467.6,679.4z M466.8,675.9l-1.6-6.9l-3.3,6.9
		H466.8z"/>
	<path class="st1" d="M474.5,683.1l5.5-19.5h3.7l3.3,11.7l6.3-11.7h3.8l0.7,19.5h-4.5l-0.1-11.6l-6.2,11.6h-1.7l-3.4-11.6l-3,11.6
		H474.5z"/>
</g>
<g>
	<path class="st1" d="M523.4,647.7h1.4v50h-1.4V647.7z"/>
</g>
<g>
	<g>
		<polygon class="st1" points="577.7,658.8 568.6,658.8 550.4,677 550.4,684.4 568.6,684.4 568.6,693.5 577.7,693.5 577.7,677 
			559.5,677 		"/>
		<polygon class="st1" points="581.6,667.9 590.7,658.8 581.6,658.8 		"/>
		<polygon class="st1" points="599.9,667.9 599.9,658.8 590.7,658.8 590.7,667.9 581.6,677 581.6,686.1 590.7,686.1 590.7,677 		"/>
		<polygon class="st1" points="599.9,677 590.7,686.1 599.9,686.1 		"/>
		<polygon class="st1" points="618.5,683 620.9,663.4 624.9,663.4 633.9,676.2 635.5,663.4 640,663.4 637.6,683 633.7,683 
			624.6,670.2 623,683 		"/>
		<polygon class="st1" points="654.6,667.3 648.2,667.3 647.8,671.1 653.9,671.1 653.5,674.9 647.3,674.9 646.8,679.2 653.3,679.2 
			652.8,683 641.9,683 644.3,663.4 655.1,663.4 		"/>
		<polygon class="st1" points="665.5,667.3 663.5,683 659,683 660.9,667.3 656.7,667.3 657.2,663.4 670.2,663.4 669.7,667.3 		"/>
		<polygon class="st1" points="675.1,663.4 677.7,676.4 683.5,663.4 686.6,663.4 689.2,676.4 694.9,663.4 699.8,663.4 690.7,683 
			686.8,683 684.2,671.1 678.7,683 674.8,683 670.6,663.4 		"/>
		<path class="st1" d="M718.5,665.6c1.7,1.6,2.8,4.1,2.8,7c0,2.8-1,5.8-3,7.9c-2.5,2.5-5.6,3-8.1,3c-2.4,0-5.1-0.4-7.5-2.8
			c-1.4-1.4-2.8-3.6-2.8-6.8c0-3.4,1.4-6.1,3.2-7.9c2.5-2.4,5.5-3,8.1-3C715,663,717.2,664.3,718.5,665.6 M706.4,669.1
			c-1.1,1.2-1.8,2.8-1.8,4.5c0,1.8,0.7,3.2,1.6,4.1c1.3,1.3,2.9,1.6,4.3,1.6c1.3,0,2.9-0.2,4.4-1.7c1.1-1.1,1.8-2.8,1.8-4.8
			c0-1.3-0.3-2.8-1.6-4.1c-1.3-1.3-2.8-1.5-4.1-1.5C709.1,667.2,707.5,667.8,706.4,669.1"/>
		<path class="st1" d="M732,663.4c1.9,0,3.7,0.2,5.2,1.8c0.7,0.7,1.4,2,1.4,4c0,1.8-0.6,3.3-1.6,4.3c-0.9,0.8-2,1.4-3.1,1.6l5.1,8
			h-5.3l-4.7-7.7L728,683h-4.5l2.4-19.6H732z M729.3,672.4h1.1c0.7,0,1.9-0.1,2.6-0.7c0.8-0.6,1-1.5,1-2.3c0-0.6-0.1-1.4-0.9-1.9
			c-0.6-0.4-1.4-0.5-2.5-0.5h-0.7L729.3,672.4z"/>
		<polygon class="st1" points="747.2,671.6 754.4,663.4 759.8,663.4 751.2,672.9 758.5,683 752.8,683 746.9,674.2 745.8,683 
			741.3,683 743.7,663.4 748.2,663.4 		"/>
	</g>
</g>
</svg>
